<?xml version="1.0" encoding="UTF-8"?><svg xmlns="http://www.w3.org/2000/svg" xmlns:xlink="http://www.w3.org/1999/xlink" contentStyleType="text/css" data-diagram-type="CLASS" height="514px" preserveAspectRatio="none" style="width:407px;height:514px;background:#FFFFFF;" version="1.1" viewBox="0 0 407 514" width="407px" zoomAndPan="magnify">
    <defs/>
    <g>
        <!--class Entidad-->
        <g class="entity" data-entity="Entidad" data-source-line="5" data-uid="ent0002" id="entity_Entidad">
            <rect fill="#CCCCCC" height="161.8551" rx="2.5" ry="2.5" style="stroke:#AAAAAA;stroke-width:0.5;" width="180.1009" x="113.5" y="169"/>
            <ellipse cx="181.3011" cy="182" fill="#A9DCDF" rx="8" ry="8" style="stroke:#181818;stroke-width:1;"/>
            <path d="M183.098,185.25 L182.5198,183.375 L179.6605,183.375 L179.098,185.25 L177.3011,185.25 L180.0667,177.3594 L182.1136,177.3594 L184.8948,185.25 L183.098,185.25 Z M181.5511,180.1563 Q181.5042,179.9688 181.4105,179.6875 Q181.3323,179.3906 181.2386,179.0938 Q181.1448,178.7969 181.098,178.5781 Q181.0355,178.7969 180.9417,179.125 Q180.848,179.4531 180.7698,179.75 Q180.6917,180.0313 180.6448,180.1563 L180.0823,181.9844 L182.1292,181.9844 L181.5511,180.1563 Z " fill="#000000"/>
            <text fill="#333333" font-family="Verdana" font-size="11" font-style="italic" lengthAdjust="spacing" textLength="37.4987" x="197.3011" y="186.268">Entidad</text>
            <line style="stroke:#AAAAAA;stroke-width:0.5;" x1="114.5" x2="292.6009" y1="195" y2="195"/>
            <rect fill="none" height="6" style="stroke:#C82930;stroke-width:1;" width="6" x="121.5" y="204.4909"/>
            <text fill="#333333" font-family="sans-serif" font-size="11" lengthAdjust="spacing" textLength="75.0635" x="130.5" y="210.7589">String nombre</text>
            <rect fill="none" height="6" style="stroke:#C82930;stroke-width:1;" width="6" x="121.5" y="219.4728"/>
            <text fill="#333333" font-family="sans-serif" font-size="11" lengthAdjust="spacing" textLength="44.3077" x="130.5" y="225.7408">int salud</text>
            <rect fill="none" height="6" style="stroke:#C82930;stroke-width:1;" width="6" x="121.5" y="234.4547"/>
            <text fill="#333333" font-family="sans-serif" font-size="11" lengthAdjust="spacing" textLength="52.5466" x="130.5" y="240.7227">int ataque</text>
            <rect fill="none" height="6" style="stroke:#C82930;stroke-width:1;" width="6" x="121.5" y="249.4366"/>
            <text fill="#333333" font-family="sans-serif" font-size="11" lengthAdjust="spacing" textLength="88.9454" x="130.5" y="255.7046">Posicion posicion</text>
            <line style="stroke:#AAAAAA;stroke-width:1;" x1="114.5" x2="292.6009" y1="262.9276" y2="262.9276"/>
            <ellipse cx="124.5" cy="275.4185" fill="#84BE84" rx="3" ry="3" style="stroke:#038048;stroke-width:1;"/>
            <text fill="#333333" font-family="sans-serif" font-size="11" lengthAdjust="spacing" textLength="112.4412" x="130.5" y="278.6865">abstract void mover( )</text>
            <ellipse cx="124.5" cy="290.4004" fill="#84BE84" rx="3" ry="3" style="stroke:#038048;stroke-width:1;"/>
            <text fill="#333333" font-family="sans-serif" font-size="11" lengthAdjust="spacing" textLength="157.1009" x="130.5" y="293.6684">abstract void atacar(Entidad e)</text>
            <ellipse cx="124.5" cy="305.3823" fill="#84BE84" rx="3" ry="3" style="stroke:#038048;stroke-width:1;"/>
            <text fill="#333333" font-family="sans-serif" font-size="11" lengthAdjust="spacing" textLength="156.0119" x="130.5" y="308.6502">void recibirGolpe(int cantidad)</text>
            <ellipse cx="124.5" cy="320.3642" fill="#84BE84" rx="3" ry="3" style="stroke:#038048;stroke-width:1;"/>
            <text fill="#333333" font-family="sans-serif" font-size="11" lengthAdjust="spacing" textLength="97.7013" x="130.5" y="323.6321">boolean estaVivo( )</text>
        </g>
        <!--class Jugador-->
        <g class="entity" data-entity="Jugador" data-source-line="17" data-uid="ent0003" id="entity_Jugador">
            <rect fill="#CCCCCC" height="101.9276" rx="2.5" ry="2.5" style="stroke:#AAAAAA;stroke-width:0.5;" width="179.0119" x="7" y="7"/>
            <ellipse cx="72.6561" cy="20" fill="#1A66C2" rx="8" ry="8" style="stroke:#181818;stroke-width:1;"/>
            <path d="M72.4842,17.4219 Q71.5155,17.4219 71.0155,18.1406 Q70.5155,18.8594 70.5155,20.0938 Q70.5155,21.3438 70.9686,22.0313 Q71.4373,22.7188 72.4842,22.7188 Q72.9686,22.7188 73.4373,22.6094 Q73.9217,22.5 74.4842,22.3125 L74.4842,23.7031 Q73.9686,23.9063 73.453,24 Q72.953,24.1094 72.328,24.1094 Q71.1092,24.1094 70.328,23.6094 Q69.5467,23.1094 69.1717,22.2031 Q68.7967,21.2969 68.7967,20.0781 Q68.7967,18.8906 69.2186,17.9844 Q69.6561,17.0625 70.4686,16.5469 Q71.2967,16.0313 72.4842,16.0313 Q73.0623,16.0313 73.6405,16.1875 Q74.2342,16.3281 74.7811,16.5938 L74.2342,17.9375 Q73.7967,17.7344 73.3436,17.5781 Q72.9061,17.4219 72.4842,17.4219 Z " fill="#000000"/>
            <text fill="#333333" font-family="Verdana" font-size="11" lengthAdjust="spacing" textLength="40.6997" x="88.6561" y="24.268">Jugador</text>
            <line style="stroke:#AAAAAA;stroke-width:0.5;" x1="8" x2="185.0119" y1="33" y2="33"/>
            <text fill="#333333" font-family="sans-serif" font-size="11" lengthAdjust="spacing" textLength="2.86" x="13" y="48.7589"> </text>
            <line style="stroke:#AAAAAA;stroke-width:1;" x1="8" x2="185.0119" y1="55.9819" y2="55.9819"/>
            <ellipse cx="18" cy="68.4728" fill="#84BE84" rx="3" ry="3" style="stroke:#038048;stroke-width:1;"/>
            <text fill="#333333" font-family="sans-serif" font-size="11" lengthAdjust="spacing" textLength="67.4405" x="24" y="71.7408">void mover( )</text>
            <ellipse cx="18" cy="83.4547" fill="#84BE84" rx="3" ry="3" style="stroke:#038048;stroke-width:1;"/>
            <text fill="#333333" font-family="sans-serif" font-size="11" lengthAdjust="spacing" textLength="118.3372" x="24" y="86.7227">void atacar(Enemigo e)</text>
            <ellipse cx="18" cy="98.4366" fill="#84BE84" rx="3" ry="3" style="stroke:#038048;stroke-width:1;"/>
            <text fill="#333333" font-family="sans-serif" font-size="11" lengthAdjust="spacing" textLength="156.0119" x="24" y="101.7046">void recibirGolpe(int cantidad)</text>
        </g>
        <!--class Enemigo-->
        <g class="entity" data-entity="Enemigo" data-source-line="25" data-uid="ent0004" id="entity_Enemigo">
            <rect fill="#CCCCCC" height="86.9457" rx="2.5" ry="2.5" style="stroke:#AAAAAA;stroke-width:0.5;" width="179.0119" x="221" y="14.5"/>
            <ellipse cx="284.1756" cy="27.5" fill="#1A66C2" rx="8" ry="8" style="stroke:#181818;stroke-width:1;"/>
            <path d="M284.0037,24.9219 Q283.035,24.9219 282.535,25.6406 Q282.035,26.3594 282.035,27.5938 Q282.035,28.8438 282.4881,29.5313 Q282.9569,30.2188 284.0037,30.2188 Q284.4881,30.2188 284.9569,30.1094 Q285.4412,30 286.0037,29.8125 L286.0037,31.2031 Q285.4881,31.4063 284.9725,31.5 Q284.4725,31.6094 283.8475,31.6094 Q282.6287,31.6094 281.8475,31.1094 Q281.0662,30.6094 280.6912,29.7031 Q280.3162,28.7969 280.3162,27.5781 Q280.3162,26.3906 280.7381,25.4844 Q281.1756,24.5625 281.9881,24.0469 Q282.8162,23.5313 284.0037,23.5313 Q284.5819,23.5313 285.16,23.6875 Q285.7537,23.8281 286.3006,24.0938 L285.7537,25.4375 Q285.3162,25.2344 284.8631,25.0781 Q284.4256,24.9219 284.0037,24.9219 Z " fill="#000000"/>
            <text fill="#333333" font-family="Verdana" font-size="11" lengthAdjust="spacing" textLength="45.6607" x="300.1756" y="31.768">Enemigo</text>
            <line style="stroke:#AAAAAA;stroke-width:0.5;" x1="222" x2="399.0119" y1="40.5" y2="40.5"/>
            <line style="stroke:#AAAAAA;stroke-width:1;" x1="222" x2="399.0119" y1="48.5" y2="48.5"/>
            <ellipse cx="232" cy="60.9909" fill="#84BE84" rx="3" ry="3" style="stroke:#038048;stroke-width:1;"/>
            <text fill="#333333" font-family="sans-serif" font-size="11" lengthAdjust="spacing" textLength="67.4405" x="238" y="64.2589">void mover( )</text>
            <ellipse cx="232" cy="75.9728" fill="#84BE84" rx="3" ry="3" style="stroke:#038048;stroke-width:1;"/>
            <text fill="#333333" font-family="sans-serif" font-size="11" lengthAdjust="spacing" textLength="110.0102" x="238" y="79.2408">void atacar(Jugador j)</text>
            <ellipse cx="232" cy="90.9547" fill="#84BE84" rx="3" ry="3" style="stroke:#038048;stroke-width:1;"/>
            <text fill="#333333" font-family="sans-serif" font-size="11" lengthAdjust="spacing" textLength="156.0119" x="238" y="94.2227">void recibirGolpe(int cantidad)</text>
        </g>
        <!--class Posicion-->
        <g class="entity" data-entity="Posicion" data-source-line="32" data-uid="ent0005" id="entity_Posicion">
            <rect fill="#CCCCCC" height="116.9094" rx="2.5" ry="2.5" style="stroke:#AAAAAA;stroke-width:0.5;" width="138.4992" x="134.5" y="391"/>
            <ellipse cx="178.7557" cy="404" fill="#1A66C2" rx="8" ry="8" style="stroke:#181818;stroke-width:1;"/>
            <path d="M178.5839,401.4219 Q177.6151,401.4219 177.1151,402.1406 Q176.6151,402.8594 176.6151,404.0938 Q176.6151,405.3438 177.0682,406.0313 Q177.537,406.7188 178.5839,406.7188 Q179.0682,406.7188 179.537,406.6094 Q180.0214,406.5 180.5839,406.3125 L180.5839,407.7031 Q180.0682,407.9063 179.5526,408 Q179.0526,408.1094 178.4276,408.1094 Q177.2089,408.1094 176.4276,407.6094 Q175.6464,407.1094 175.2714,406.2031 Q174.8964,405.2969 174.8964,404.0781 Q174.8964,402.8906 175.3182,401.9844 Q175.7557,401.0625 176.5682,400.5469 Q177.3964,400.0313 178.5839,400.0313 Q179.162,400.0313 179.7401,400.1875 Q180.3339,400.3281 180.8807,400.5938 L180.3339,401.9375 Q179.8964,401.7344 179.4432,401.5781 Q179.0057,401.4219 178.5839,401.4219 Z " fill="#000000"/>
            <text fill="#333333" font-family="Verdana" font-size="11" lengthAdjust="spacing" textLength="42.9877" x="194.7557" y="408.268">Posicion</text>
            <line style="stroke:#AAAAAA;stroke-width:0.5;" x1="135.5" x2="271.9992" y1="417" y2="417"/>
            <rect fill="none" height="6" style="stroke:#C82930;stroke-width:1;" width="6" x="142.5" y="426.4909"/>
            <text fill="#333333" font-family="sans-serif" font-size="11" lengthAdjust="spacing" textLength="22.2858" x="151.5" y="432.7589">int x</text>
            <rect fill="none" height="6" style="stroke:#C82930;stroke-width:1;" width="6" x="142.5" y="441.4728"/>
            <text fill="#333333" font-family="sans-serif" font-size="11" lengthAdjust="spacing" textLength="22.0768" x="151.5" y="447.7408">int y</text>
            <line style="stroke:#AAAAAA;stroke-width:1;" x1="135.5" x2="271.9992" y1="454.9638" y2="454.9638"/>
            <ellipse cx="145.5" cy="467.4547" fill="#84BE84" rx="3" ry="3" style="stroke:#038048;stroke-width:1;"/>
            <text fill="#333333" font-family="sans-serif" font-size="11" lengthAdjust="spacing" textLength="115.4992" x="151.5" y="470.7227">void setPos(int x, int y)</text>
            <ellipse cx="145.5" cy="482.4366" fill="#84BE84" rx="3" ry="3" style="stroke:#038048;stroke-width:1;"/>
            <text fill="#333333" font-family="sans-serif" font-size="11" lengthAdjust="spacing" textLength="49.3127" x="151.5" y="485.7046">int getX( )</text>
            <ellipse cx="145.5" cy="497.4185" fill="#84BE84" rx="3" ry="3" style="stroke:#038048;stroke-width:1;"/>
            <text fill="#333333" font-family="sans-serif" font-size="11" lengthAdjust="spacing" textLength="49.0927" x="151.5" y="500.6865">int getY( )</text>
        </g>
        <!--link Jugador to Entidad-->
        <g class="link" data-entity-1="Jugador" data-entity-2="Entidad" data-source-line="42" data-uid="lnk6" id="link_Jugador_Entidad">
            <path codeLine="42" d="M124.89,109.42 C135.17,127.67 138.2194,133.075 149.5694,153.235" fill="none" id="Jugador-to-Entidad" style="stroke:#000000;stroke-width:1;"/>
            <polygon fill="none" points="158.4,168.92,154.7977,150.2914,144.341,156.1785,158.4,168.92" style="stroke:#000000;stroke-width:1;"/>
        </g>
        <!--link Enemigo to Entidad-->
        <g class="link" data-entity-1="Enemigo" data-entity-2="Entidad" data-source-line="43" data-uid="lnk7" id="link_Enemigo_Entidad">
            <path codeLine="43" d="M286.49,101.64 C275.33,121.44 270.535,129.9775 257.555,153.0175" fill="none" id="Enemigo-to-Entidad" style="stroke:#000000;stroke-width:1;"/>
            <polygon fill="none" points="248.72,168.7,262.7826,155.9625,252.3275,150.0724,248.72,168.7" style="stroke:#000000;stroke-width:1;"/>
        </g>
        <!--link Entidad to Posicion-->
        <g class="link" data-entity-1="Entidad" data-entity-2="Posicion" data-source-line="44" data-uid="lnk8" id="link_Entidad_Posicion">
            <path codeLine="44" d="M203.5,331.05 C203.5,351.04 203.5,366.1 203.5,384.77" fill="none" id="Entidad-to-Posicion" style="stroke:#000000;stroke-width:1;"/>
            <polygon fill="#000000" points="203.5,390.77,207.5,381.77,203.5,385.77,199.5,381.77,203.5,390.77" style="stroke:#000000;stroke-width:1;"/>
        </g>
        <!--SRC=[bP9DJyCm38Rl-HNUYI7eUaTY1nWQe25DWo4ukgdf0cbI4dTiAlntclL3C0v03wrTl_NpnlKWfITb26PNqykxizdoGWoKaRfCgNGQLio5FubZXs-ZJF6gJ4fFJbh3P7WaRHvF7BvGRbsye7JYoFjehj7mycOMv-YPNEnvgsbKbBaMuW1EwmlEDNg29DmmyUnGCkugeaj1rX8F5uPLYYbK8e9RTifaO6oUEAfpPHWyraxR61bVor2OMw-aiWQADX1H98vw4gojIY6tQt93EFnHgDj8TCEEJ46nApYIAb5kQdL1mm2Ks6Y28h5M4neWptYlrZPq_X2YESLrcM5gNIKQ8_lyxrZALMR_Xkq1tLVLxu3M2pp_2z2Fj6g7lMcVsoz4JrphTYqsnqqrG4AG4JyqNjhiiHrGkn0BqXZwas_Me7CPHU_ZRWb4Tygzbyr_Yg9nxr9y0W00]-->
    </g>
</svg>
