<?xml version="1.0" encoding="UTF-8"?><svg xmlns="http://www.w3.org/2000/svg" xmlns:xlink="http://www.w3.org/1999/xlink" contentStyleType="text/css" data-diagram-type="CLASS" height="544px" preserveAspectRatio="none" style="width:598px;height:544px;background:#FFFFFF;" version="1.1" viewBox="0 0 598 544" width="598px" zoomAndPan="magnify">
    <defs/>
    <g>
        <!--class Juego-->
        <g class="entity" data-entity="Juego" data-source-line="4" data-uid="ent0002" id="entity_Juego">
            <rect fill="#CCCCCC" height="146.8732" rx="2.5" ry="2.5" style="stroke:#AAAAAA;stroke-width:0.5;" width="124.5072" x="248" y="7"/>
            <ellipse cx="292.0412" cy="20" fill="#1A66C2" rx="8" ry="8" style="stroke:#181818;stroke-width:1;"/>
            <path d="M291.8694,17.4219 Q290.9006,17.4219 290.4006,18.1406 Q289.9006,18.8594 289.9006,20.0938 Q289.9006,21.3438 290.3537,22.0313 Q290.8225,22.7188 291.8694,22.7188 Q292.3537,22.7188 292.8225,22.6094 Q293.3069,22.5 293.8694,22.3125 L293.8694,23.7031 Q293.3537,23.9063 292.8381,24 Q292.3381,24.1094 291.7131,24.1094 Q290.4944,24.1094 289.7131,23.6094 Q288.9319,23.1094 288.5569,22.2031 Q288.1819,21.2969 288.1819,20.0781 Q288.1819,18.8906 288.6037,17.9844 Q289.0412,17.0625 289.8537,16.5469 Q290.6819,16.0313 291.8694,16.0313 Q292.4475,16.0313 293.0256,16.1875 Q293.6194,16.3281 294.1662,16.5938 L293.6194,17.9375 Q293.1819,17.7344 292.7287,17.5781 Q292.2912,17.4219 291.8694,17.4219 Z " fill="#000000"/>
            <text fill="#333333" font-family="Verdana" font-size="11" lengthAdjust="spacing" textLength="29.4248" x="308.0412" y="24.268">Juego</text>
            <line style="stroke:#AAAAAA;stroke-width:0.5;" x1="249" x2="371.5072" y1="33" y2="33"/>
            <rect fill="none" height="6" style="stroke:#C82930;stroke-width:1;" width="6" x="256" y="42.4909"/>
            <text fill="#333333" font-family="sans-serif" font-size="11" lengthAdjust="spacing" textLength="84.0944" x="265" y="48.7589">Jugador jugador</text>
            <rect fill="none" height="6" style="stroke:#C82930;stroke-width:1;" width="6" x="256" y="57.4728"/>
            <text fill="#333333" font-family="sans-serif" font-size="11" lengthAdjust="spacing" textLength="101.5072" x="265" y="63.7408">Enemigo[] enemigo</text>
            <rect fill="none" height="6" style="stroke:#C82930;stroke-width:1;" width="6" x="256" y="72.4547"/>
            <text fill="#333333" font-family="sans-serif" font-size="11" lengthAdjust="spacing" textLength="61.3356" x="265" y="78.7227">Mapa mapa</text>
            <rect fill="none" height="6" style="stroke:#C82930;stroke-width:1;" width="6" x="256" y="87.4366"/>
            <text fill="#333333" font-family="sans-serif" font-size="11" lengthAdjust="spacing" textLength="95.2263" x="265" y="93.7046">boolean corriendo</text>
            <line style="stroke:#AAAAAA;stroke-width:1;" x1="249" x2="371.5072" y1="100.9276" y2="100.9276"/>
            <ellipse cx="259" cy="113.4185" fill="#84BE84" rx="3" ry="3" style="stroke:#038048;stroke-width:1;"/>
            <text fill="#333333" font-family="sans-serif" font-size="11" lengthAdjust="spacing" textLength="65.4715" x="265" y="116.6865">void iniciar( )</text>
            <ellipse cx="259" cy="128.4004" fill="#84BE84" rx="3" ry="3" style="stroke:#038048;stroke-width:1;"/>
            <text fill="#333333" font-family="sans-serif" font-size="11" lengthAdjust="spacing" textLength="84.1164" x="265" y="131.6684">void actualizar( )</text>
            <ellipse cx="259" cy="143.3823" fill="#84BE84" rx="3" ry="3" style="stroke:#038048;stroke-width:1;"/>
            <text fill="#333333" font-family="sans-serif" font-size="11" lengthAdjust="spacing" textLength="74.8544" x="265" y="146.6502">void detener( )</text>
        </g>
        <!--class Jugador-->
        <g class="entity" data-entity="Jugador" data-source-line="15" data-uid="ent0003" id="entity_Jugador">
            <rect fill="#CCCCCC" height="146.8732" rx="2.5" ry="2.5" style="stroke:#AAAAAA;stroke-width:0.5;" width="179.0119" x="7" y="214"/>
            <ellipse cx="72.6561" cy="227" fill="#1A66C2" rx="8" ry="8" style="stroke:#181818;stroke-width:1;"/>
            <path d="M72.4842,224.4219 Q71.5155,224.4219 71.0155,225.1406 Q70.5155,225.8594 70.5155,227.0938 Q70.5155,228.3438 70.9686,229.0313 Q71.4373,229.7188 72.4842,229.7188 Q72.9686,229.7188 73.4373,229.6094 Q73.9217,229.5 74.4842,229.3125 L74.4842,230.7031 Q73.9686,230.9063 73.453,231 Q72.953,231.1094 72.328,231.1094 Q71.1092,231.1094 70.328,230.6094 Q69.5467,230.1094 69.1717,229.2031 Q68.7967,228.2969 68.7967,227.0781 Q68.7967,225.8906 69.2186,224.9844 Q69.6561,224.0625 70.4686,223.5469 Q71.2967,223.0313 72.4842,223.0313 Q73.0623,223.0313 73.6405,223.1875 Q74.2342,223.3281 74.7811,223.5938 L74.2342,224.9375 Q73.7967,224.7344 73.3436,224.5781 Q72.9061,224.4219 72.4842,224.4219 Z " fill="#000000"/>
            <text fill="#333333" font-family="Verdana" font-size="11" lengthAdjust="spacing" textLength="40.6997" x="88.6561" y="231.268">Jugador</text>
            <line style="stroke:#AAAAAA;stroke-width:0.5;" x1="8" x2="185.0119" y1="240" y2="240"/>
            <rect fill="none" height="6" style="stroke:#C82930;stroke-width:1;" width="6" x="15" y="249.4909"/>
            <text fill="#333333" font-family="sans-serif" font-size="11" lengthAdjust="spacing" textLength="75.0635" x="24" y="255.7589">String nombre</text>
            <rect fill="none" height="6" style="stroke:#C82930;stroke-width:1;" width="6" x="15" y="264.4728"/>
            <text fill="#333333" font-family="sans-serif" font-size="11" lengthAdjust="spacing" textLength="44.3077" x="24" y="270.7408">int salud</text>
            <rect fill="none" height="6" style="stroke:#C82930;stroke-width:1;" width="6" x="15" y="279.4547"/>
            <text fill="#333333" font-family="sans-serif" font-size="11" lengthAdjust="spacing" textLength="52.5466" x="24" y="285.7227">int ataque</text>
            <rect fill="none" height="6" style="stroke:#C82930;stroke-width:1;" width="6" x="15" y="294.4366"/>
            <text fill="#333333" font-family="sans-serif" font-size="11" lengthAdjust="spacing" textLength="88.9454" x="24" y="300.7046">Posicion posicion</text>
            <line style="stroke:#AAAAAA;stroke-width:1;" x1="8" x2="185.0119" y1="307.9276" y2="307.9276"/>
            <ellipse cx="18" cy="320.4185" fill="#84BE84" rx="3" ry="3" style="stroke:#038048;stroke-width:1;"/>
            <text fill="#333333" font-family="sans-serif" font-size="11" lengthAdjust="spacing" textLength="67.4405" x="24" y="323.6865">void mover( )</text>
            <ellipse cx="18" cy="335.4004" fill="#84BE84" rx="3" ry="3" style="stroke:#038048;stroke-width:1;"/>
            <text fill="#333333" font-family="sans-serif" font-size="11" lengthAdjust="spacing" textLength="118.3372" x="24" y="338.6684">void atacar(Enemigo e)</text>
            <ellipse cx="18" cy="350.3823" fill="#84BE84" rx="3" ry="3" style="stroke:#038048;stroke-width:1;"/>
            <text fill="#333333" font-family="sans-serif" font-size="11" lengthAdjust="spacing" textLength="156.0119" x="24" y="353.6502">void recibirGolpe(int cantidad)</text>
        </g>
        <!--class Enemigo-->
        <g class="entity" data-entity="Enemigo" data-source-line="26" data-uid="ent0004" id="entity_Enemigo">
            <rect fill="#CCCCCC" height="146.8732" rx="2.5" ry="2.5" style="stroke:#AAAAAA;stroke-width:0.5;" width="179.0119" x="221" y="214"/>
            <ellipse cx="284.1756" cy="227" fill="#1A66C2" rx="8" ry="8" style="stroke:#181818;stroke-width:1;"/>
            <path d="M284.0037,224.4219 Q283.035,224.4219 282.535,225.1406 Q282.035,225.8594 282.035,227.0938 Q282.035,228.3438 282.4881,229.0313 Q282.9569,229.7188 284.0037,229.7188 Q284.4881,229.7188 284.9569,229.6094 Q285.4412,229.5 286.0037,229.3125 L286.0037,230.7031 Q285.4881,230.9063 284.9725,231 Q284.4725,231.1094 283.8475,231.1094 Q282.6287,231.1094 281.8475,230.6094 Q281.0662,230.1094 280.6912,229.2031 Q280.3162,228.2969 280.3162,227.0781 Q280.3162,225.8906 280.7381,224.9844 Q281.1756,224.0625 281.9881,223.5469 Q282.8162,223.0313 284.0037,223.0313 Q284.5819,223.0313 285.16,223.1875 Q285.7537,223.3281 286.3006,223.5938 L285.7537,224.9375 Q285.3162,224.7344 284.8631,224.5781 Q284.4256,224.4219 284.0037,224.4219 Z " fill="#000000"/>
            <text fill="#333333" font-family="Verdana" font-size="11" lengthAdjust="spacing" textLength="45.6607" x="300.1756" y="231.268">Enemigo</text>
            <line style="stroke:#AAAAAA;stroke-width:0.5;" x1="222" x2="399.0119" y1="240" y2="240"/>
            <rect fill="none" height="6" style="stroke:#C82930;stroke-width:1;" width="6" x="229" y="249.4909"/>
            <text fill="#333333" font-family="sans-serif" font-size="11" lengthAdjust="spacing" textLength="54.0426" x="238" y="255.7589">String tipo</text>
            <rect fill="none" height="6" style="stroke:#C82930;stroke-width:1;" width="6" x="229" y="264.4728"/>
            <text fill="#333333" font-family="sans-serif" font-size="11" lengthAdjust="spacing" textLength="44.3077" x="238" y="270.7408">int salud</text>
            <rect fill="none" height="6" style="stroke:#C82930;stroke-width:1;" width="6" x="229" y="279.4547"/>
            <text fill="#333333" font-family="sans-serif" font-size="11" lengthAdjust="spacing" textLength="52.5466" x="238" y="285.7227">int ataque</text>
            <rect fill="none" height="6" style="stroke:#C82930;stroke-width:1;" width="6" x="229" y="294.4366"/>
            <text fill="#333333" font-family="sans-serif" font-size="11" lengthAdjust="spacing" textLength="88.9454" x="238" y="300.7046">Posicion posicion</text>
            <line style="stroke:#AAAAAA;stroke-width:1;" x1="222" x2="399.0119" y1="307.9276" y2="307.9276"/>
            <ellipse cx="232" cy="320.4185" fill="#84BE84" rx="3" ry="3" style="stroke:#038048;stroke-width:1;"/>
            <text fill="#333333" font-family="sans-serif" font-size="11" lengthAdjust="spacing" textLength="67.4405" x="238" y="323.6865">void mover( )</text>
            <ellipse cx="232" cy="335.4004" fill="#84BE84" rx="3" ry="3" style="stroke:#038048;stroke-width:1;"/>
            <text fill="#333333" font-family="sans-serif" font-size="11" lengthAdjust="spacing" textLength="110.0102" x="238" y="338.6684">void atacar(Jugador j)</text>
            <ellipse cx="232" cy="350.3823" fill="#84BE84" rx="3" ry="3" style="stroke:#038048;stroke-width:1;"/>
            <text fill="#333333" font-family="sans-serif" font-size="11" lengthAdjust="spacing" textLength="156.0119" x="238" y="353.6502">void recibirGolpe(int cantidad)</text>
        </g>
        <!--class Mapa-->
        <g class="entity" data-entity="Mapa" data-source-line="37" data-uid="ent0005" id="entity_Mapa">
            <rect fill="#CCCCCC" height="101.9276" rx="2.5" ry="2.5" style="stroke:#AAAAAA;stroke-width:0.5;" width="156.3191" x="435.5" y="236.5"/>
            <ellipse cx="495.6176" cy="249.5" fill="#1A66C2" rx="8" ry="8" style="stroke:#181818;stroke-width:1;"/>
            <path d="M495.4458,246.9219 Q494.477,246.9219 493.977,247.6406 Q493.477,248.3594 493.477,249.5938 Q493.477,250.8438 493.9301,251.5313 Q494.3989,252.2188 495.4458,252.2188 Q495.9301,252.2188 496.3989,252.1094 Q496.8833,252 497.4458,251.8125 L497.4458,253.2031 Q496.9301,253.4063 496.4145,253.5 Q495.9145,253.6094 495.2895,253.6094 Q494.0708,253.6094 493.2895,253.1094 Q492.5083,252.6094 492.1333,251.7031 Q491.7583,250.7969 491.7583,249.5781 Q491.7583,248.3906 492.1801,247.4844 Q492.6176,246.5625 493.4301,246.0469 Q494.2583,245.5313 495.4458,245.5313 Q496.0239,245.5313 496.602,245.6875 Q497.1958,245.8281 497.7426,246.0938 L497.1958,247.4375 Q496.7583,247.2344 496.3051,247.0781 Q495.8676,246.9219 495.4458,246.9219 Z " fill="#000000"/>
            <text fill="#333333" font-family="Verdana" font-size="11" lengthAdjust="spacing" textLength="29.0838" x="511.6176" y="253.768">Mapa</text>
            <line style="stroke:#AAAAAA;stroke-width:0.5;" x1="436.5" x2="590.8191" y1="262.5" y2="262.5"/>
            <rect fill="none" height="6" style="stroke:#C82930;stroke-width:1;" width="6" x="443.5" y="271.9909"/>
            <text fill="#333333" font-family="sans-serif" font-size="11" lengthAdjust="spacing" textLength="48.1687" x="452.5" y="278.2589">int ancho</text>
            <rect fill="none" height="6" style="stroke:#C82930;stroke-width:1;" width="6" x="443.5" y="286.9728"/>
            <text fill="#333333" font-family="sans-serif" font-size="11" lengthAdjust="spacing" textLength="36.1018" x="452.5" y="293.2408">int alto</text>
            <rect fill="none" height="6" style="stroke:#C82930;stroke-width:1;" width="6" x="443.5" y="301.9547"/>
            <text fill="#333333" font-family="sans-serif" font-size="11" lengthAdjust="spacing" textLength="133.3191" x="452.5" y="308.2227">Posicion[ ][ ] coordenadas</text>
            <line style="stroke:#AAAAAA;stroke-width:1;" x1="436.5" x2="590.8191" y1="315.4457" y2="315.4457"/>
            <ellipse cx="446.5" cy="327.9366" fill="#84BE84" rx="3" ry="3" style="stroke:#038048;stroke-width:1;"/>
            <text fill="#333333" font-family="sans-serif" font-size="11" lengthAdjust="spacing" textLength="67.6385" x="452.5" y="331.2046">void cargar( )</text>
        </g>
        <!--class Posicion-->
        <g class="entity" data-entity="Posicion" data-source-line="45" data-uid="ent0006" id="entity_Posicion">
            <rect fill="#CCCCCC" height="116.9094" rx="2.5" ry="2.5" style="stroke:#AAAAAA;stroke-width:0.5;" width="138.4992" x="241.5" y="421"/>
            <ellipse cx="285.7557" cy="434" fill="#1A66C2" rx="8" ry="8" style="stroke:#181818;stroke-width:1;"/>
            <path d="M285.5839,431.4219 Q284.6151,431.4219 284.1151,432.1406 Q283.6151,432.8594 283.6151,434.0938 Q283.6151,435.3438 284.0682,436.0313 Q284.537,436.7188 285.5839,436.7188 Q286.0682,436.7188 286.537,436.6094 Q287.0214,436.5 287.5839,436.3125 L287.5839,437.7031 Q287.0682,437.9063 286.5526,438 Q286.0526,438.1094 285.4276,438.1094 Q284.2089,438.1094 283.4276,437.6094 Q282.6464,437.1094 282.2714,436.2031 Q281.8964,435.2969 281.8964,434.0781 Q281.8964,432.8906 282.3182,431.9844 Q282.7557,431.0625 283.5682,430.5469 Q284.3964,430.0313 285.5839,430.0313 Q286.162,430.0313 286.7401,430.1875 Q287.3339,430.3281 287.8807,430.5938 L287.3339,431.9375 Q286.8964,431.7344 286.4432,431.5781 Q286.0057,431.4219 285.5839,431.4219 Z " fill="#000000"/>
            <text fill="#333333" font-family="Verdana" font-size="11" lengthAdjust="spacing" textLength="42.9877" x="301.7557" y="438.268">Posicion</text>
            <line style="stroke:#AAAAAA;stroke-width:0.5;" x1="242.5" x2="378.9992" y1="447" y2="447"/>
            <rect fill="none" height="6" style="stroke:#C82930;stroke-width:1;" width="6" x="249.5" y="456.4909"/>
            <text fill="#333333" font-family="sans-serif" font-size="11" lengthAdjust="spacing" textLength="22.2858" x="258.5" y="462.7589">int x</text>
            <rect fill="none" height="6" style="stroke:#C82930;stroke-width:1;" width="6" x="249.5" y="471.4728"/>
            <text fill="#333333" font-family="sans-serif" font-size="11" lengthAdjust="spacing" textLength="22.0768" x="258.5" y="477.7408">int y</text>
            <line style="stroke:#AAAAAA;stroke-width:1;" x1="242.5" x2="378.9992" y1="484.9638" y2="484.9638"/>
            <ellipse cx="252.5" cy="497.4547" fill="#84BE84" rx="3" ry="3" style="stroke:#038048;stroke-width:1;"/>
            <text fill="#333333" font-family="sans-serif" font-size="11" lengthAdjust="spacing" textLength="115.4992" x="258.5" y="500.7227">void setPos(int x, int y)</text>
            <ellipse cx="252.5" cy="512.4366" fill="#84BE84" rx="3" ry="3" style="stroke:#038048;stroke-width:1;"/>
            <text fill="#333333" font-family="sans-serif" font-size="11" lengthAdjust="spacing" textLength="49.3127" x="258.5" y="515.7046">int getX( )</text>
            <ellipse cx="252.5" cy="527.4185" fill="#84BE84" rx="3" ry="3" style="stroke:#038048;stroke-width:1;"/>
            <text fill="#333333" font-family="sans-serif" font-size="11" lengthAdjust="spacing" textLength="49.0927" x="258.5" y="530.6865">int getY( )</text>
        </g>
        <!--link Juego to Jugador-->
        <g class="link" data-entity-1="Juego" data-entity-2="Jugador" data-source-line="55" data-uid="lnk7" id="link_Juego_Jugador">
            <path codeLine="55" d="M247.74,141.62 C224.18,164.19 201.4831,185.9298 176.8531,209.5198" fill="none" id="Juego-to-Jugador" style="stroke:#000000;stroke-width:1;"/>
            <polygon fill="#000000" points="172.52,213.67,181.7865,210.3335,176.1309,210.2115,176.2529,204.556,172.52,213.67" style="stroke:#000000;stroke-width:1;"/>
            <text fill="#333333" font-family="Verdana" font-size="11" lengthAdjust="spacing" textLength="6.2919" x="233.7733" y="146.0423">1</text>
            <text fill="#333333" font-family="Verdana" font-size="11" lengthAdjust="spacing" textLength="6.2919" x="174.5219" y="202.6488">1</text>
        </g>
        <!--link Juego to Enemigo-->
        <g class="link" data-entity-1="Juego" data-entity-2="Enemigo" data-source-line="56" data-uid="lnk8" id="link_Juego_Enemigo">
            <path codeLine="56" d="M310.5,154.06 C310.5,173.41 310.5,188.32 310.5,207.69" fill="none" id="Juego-to-Enemigo" style="stroke:#000000;stroke-width:1;"/>
            <polygon fill="#000000" points="310.5,213.69,314.5,204.69,310.5,208.69,306.5,204.69,310.5,213.69" style="stroke:#000000;stroke-width:1;"/>
            <text fill="#333333" font-family="Verdana" font-size="11" lengthAdjust="spacing" textLength="6.2919" x="304.2515" y="173.5501">1</text>
            <text fill="#333333" font-family="Verdana" font-size="11" lengthAdjust="spacing" textLength="6.061" x="304.1746" y="202.6709">*</text>
        </g>
        <!--link Juego to Mapa-->
        <g class="link" data-entity-1="Juego" data-entity-2="Mapa" data-source-line="57" data-uid="lnk9" id="link_Juego_Mapa">
            <path codeLine="57" d="M373.06,144.68 C402.19,174.09 432.1283,204.3266 459.4683,231.9366" fill="none" id="Juego-to-Mapa" style="stroke:#000000;stroke-width:1;"/>
            <polygon fill="#000000" points="463.69,236.2,460.1997,226.9904,460.1719,232.6471,454.5151,232.6193,463.69,236.2" style="stroke:#000000;stroke-width:1;"/>
            <text fill="#333333" font-family="Verdana" font-size="11" lengthAdjust="spacing" textLength="6.2919" x="380.6857" y="149.1144">1</text>
            <text fill="#333333" font-family="Verdana" font-size="11" lengthAdjust="spacing" textLength="6.2919" x="449.6014" y="225.1124">1</text>
        </g>
        <!--link Jugador to Posicion-->
        <g class="link" data-entity-1="Jugador" data-entity-2="Posicion" data-source-line="59" data-uid="lnk10" id="link_Jugador_Posicion">
            <path codeLine="59" d="M178.32,361.14 C200.62,380.94 219.9831,398.1366 241.1931,416.9666" fill="none" id="Jugador-to-Posicion" style="stroke:#000000;stroke-width:1;"/>
            <polygon fill="#000000" points="245.68,420.95,241.6053,411.9836,241.9409,417.6305,236.294,417.9661,245.68,420.95" style="stroke:#000000;stroke-width:1;"/>
            <text fill="#333333" font-family="Verdana" font-size="11" lengthAdjust="spacing" textLength="6.2919" x="179.8459" y="380.6377">1</text>
            <text fill="#333333" font-family="Verdana" font-size="11" lengthAdjust="spacing" textLength="6.2919" x="230.5528" y="409.9727">1</text>
        </g>
        <!--link Enemigo to Posicion-->
        <g class="link" data-entity-1="Enemigo" data-entity-2="Posicion" data-source-line="60" data-uid="lnk11" id="link_Enemigo_Posicion">
            <path codeLine="60" d="M310.5,361.14 C310.5,380.94 310.5,396.12 310.5,414.95" fill="none" id="Enemigo-to-Posicion" style="stroke:#000000;stroke-width:1;"/>
            <polygon fill="#000000" points="310.5,420.95,314.5,411.95,310.5,415.95,306.5,411.95,310.5,420.95" style="stroke:#000000;stroke-width:1;"/>
            <text fill="#333333" font-family="Verdana" font-size="11" lengthAdjust="spacing" textLength="6.2919" x="304.2274" y="380.6377">1</text>
            <text fill="#333333" font-family="Verdana" font-size="11" lengthAdjust="spacing" textLength="6.2919" x="304.083" y="409.9727">1</text>
        </g>
        <!--link Mapa to Posicion-->
        <g class="link" data-entity-1="Mapa" data-entity-2="Posicion" data-source-line="61" data-uid="lnk12" id="link_Mapa_Posicion">
            <path codeLine="61" d="M459.9,338.67 C432.88,363.96 404.3709,390.6403 376.3309,416.8803" fill="none" id="Mapa-to-Posicion" style="stroke:#000000;stroke-width:1;"/>
            <polygon fill="#000000" points="371.95,420.98,381.2545,417.7511,375.6008,417.5636,375.7883,411.9098,371.95,420.98" style="stroke:#000000;stroke-width:1;"/>
            <text fill="#333333" font-family="Verdana" font-size="11" lengthAdjust="spacing" textLength="6.061" x="446.277" y="358.3163">*</text>
            <text fill="#333333" font-family="Verdana" font-size="11" lengthAdjust="spacing" textLength="6.061" x="374.1387" y="409.6006">*</text>
        </g>
        <!--SRC=[hP9HJzmm3CVVyodClGpOUjLUaU01WTYcGq9iI9jEFFWIhvSjZRiaPJ2qxuxJQuuUucNIggfn_A_jN-pi6VfkFS7YuyM7BwUBctErPxrslQ4-E5YdrCMZkWxuUzxOjEvNVQIWsIVoQQwvhSy2_gIMGtrDvYnGZDMLGvzkBXTrYp5Hg6DwS3Jl-jOffHt629zwQlXHLM8qQ3Z0ZyqgddDFhMruUGkqiSHtYHr2An-nLyoEq8Fc42nv8tgbti8TMmFMMsqnxCD1yQ1EFJhxPyTfIE1fyFnz9Xe0CjFd5Anlm7Ex2YHxwnD4b8QCDYRyrMVXYgFKOm_TQ4nGMhwZ7P24MY36qm5jXK3QhcouODVHVawlfNdMe9d0ZL4Jk6Gx_izesr7y4reUpMEfxlMwKA5BFE5OmgsyCZGEXZmQZ1CWgTxWxZXAN4bzFwuFax18INuRmExVRTICdes6qjVD2SVTjp7x6pYM1wx9OKvFSTYhuJx2xFqCgkfaMCTkl5GEPsKOhyJaNYXL-ZXLod5KcV-hud3DSubIQgiy0G00]-->
    </g>
</svg>
