<?xml version="1.0" encoding="UTF-8"?><svg xmlns="http://www.w3.org/2000/svg" xmlns:xlink="http://www.w3.org/1999/xlink" contentStyleType="text/css" data-diagram-type="STATE" height="570px" preserveAspectRatio="none" style="width:656px;height:570px;background:#FFFFFF;" version="1.1" viewBox="0 0 656 570" width="656px" zoomAndPan="magnify">
    <title>FSM - Jugador</title>
    <defs/>
    <g>
        <g class="title" data-source-line="1">
            <text fill="#000000" font-family="sans-serif" font-size="14" font-weight="bold" lengthAdjust="spacing" textLength="95.4236" x="273.6882" y="24.9659">FSM - Jugador</text>
        </g>
        <ellipse cx="312.71" cy="56.0679" fill="#222222" rx="10" ry="10" style="stroke:#222222;stroke-width:1;"/>
        <g id="Inactivo">
            <rect fill="#F1F1F1" height="50" rx="12.5" ry="12.5" style="stroke:#181818;stroke-width:0.5;" width="72.2198" x="276.71" y="127.0679"/>
            <line style="stroke:#181818;stroke-width:0.5;" x1="276.71" x2="348.9298" y1="156.1358" y2="156.1358"/>
            <text fill="#000000" font-family="sans-serif" font-size="14" lengthAdjust="spacing" textLength="52.2198" x="286.71" y="147.0339">Inactivo</text>
        </g>
        <g id="Moviendose">
            <rect fill="#F1F1F1" height="50" rx="12.5" ry="12.5" style="stroke:#181818;stroke-width:0.5;" width="100.1217" x="73.71" y="256.0679"/>
            <line style="stroke:#181818;stroke-width:0.5;" x1="73.71" x2="173.8317" y1="285.1358" y2="285.1358"/>
            <text fill="#000000" font-family="sans-serif" font-size="14" lengthAdjust="spacing" textLength="80.1217" x="83.71" y="276.0339">Moviendose</text>
        </g>
        <g id="Atacando">
            <rect fill="#F1F1F1" height="50" rx="12.5" ry="12.5" style="stroke:#181818;stroke-width:0.5;" width="82.1598" x="271.71" y="385.0679"/>
            <line style="stroke:#181818;stroke-width:0.5;" x1="271.71" x2="353.8698" y1="414.1358" y2="414.1358"/>
            <text fill="#000000" font-family="sans-serif" font-size="14" lengthAdjust="spacing" textLength="62.1598" x="281.71" y="405.0339">Atacando</text>
        </g>
        <g id="Muerto">
            <rect fill="#F1F1F1" height="50" rx="12.5" ry="12.5" style="stroke:#181818;stroke-width:0.5;" width="68.5518" x="278.21" y="514.0679"/>
            <line style="stroke:#181818;stroke-width:0.5;" x1="278.21" x2="346.7618" y1="543.1358" y2="543.1358"/>
            <text fill="#000000" font-family="sans-serif" font-size="14" lengthAdjust="spacing" textLength="48.5518" x="288.21" y="534.0339">Muerto</text>
        </g>
        <!--link *start* to Inactivo-->
        <g class="link" data-entity-1=".start." data-entity-2="Inactivo" data-source-line="3" data-uid="lnk4" id="link_.start._Inactivo">
            <path d="M312.71,66.0779 C312.71,79.9579 312.71,101.0379 312.71,120.9079" fill="none" id="*start*-to-Inactivo" style="stroke:#181818;stroke-width:1;"/>
            <polygon fill="#181818" points="312.71,126.9079,316.71,117.9079,312.71,121.9079,308.71,117.9079,312.71,126.9079" style="stroke:#181818;stroke-width:1;"/>
        </g>
        <!--link Inactivo to Moviendose-->
        <g class="link" data-entity-1="Inactivo" data-entity-2="Moviendose" data-source-line="5" data-uid="lnk6" id="link_Inactivo_Moviendose">
            <path d="M276.65,153.2779 C235.76,155.5979 170.19,166.0279 134.71,207.0679 C123.23,220.3479 120.7615,234.3291 121.0715,250.0191" fill="none" id="Inactivo-to-Moviendose" style="stroke:#181818;stroke-width:1;"/>
            <polygon fill="#181818" points="121.19,256.0179,125.0114,246.9407,121.0912,251.0189,117.013,247.0987,121.19,256.0179" style="stroke:#181818;stroke-width:1;"/>
            <text fill="#000000" font-family="sans-serif" font-size="13" lengthAdjust="spacing" textLength="150.4101" x="135.71" y="221.9649">Presionar tecla [A,W,S,D]</text>
        </g>
        <!--link Moviendose to Inactivo-->
        <g class="link" data-entity-1="Moviendose" data-entity-2="Inactivo" data-source-line="9" data-uid="lnk11" id="link_Moviendose_Inactivo">
            <path d="M73.68,264.2879 C40.35,251.1579 6,230.8279 25.71,207.0679 C57.23,169.0679 200.8967,157.9104 270.7067,154.6204" fill="none" id="Moviendose-to-Inactivo" style="stroke:#181818;stroke-width:1;"/>
            <polygon fill="#181818" points="276.7,154.3379,267.5217,150.766,271.7055,154.5733,267.8983,158.7572,276.7,154.3379" style="stroke:#181818;stroke-width:1;"/>
            <text fill="#000000" font-family="sans-serif" font-size="13" lengthAdjust="spacing" textLength="89.3881" x="26.71" y="221.9649">No hacer nada</text>
        </g>
        <!--link Inactivo to Atacando-->
        <g class="link" data-entity-1="Inactivo" data-entity-2="Atacando" data-source-line="6" data-uid="lnk8" id="link_Inactivo_Atacando">
            <path d="M348.83,171.6079 C378.32,188.9679 417.92,217.9579 435.71,256.0679 C445.11,276.2079 445.11,285.9279 435.71,306.0679 C418.92,342.0279 387.8286,366.7374 359.0186,384.3574" fill="none" id="Inactivo-to-Atacando" style="stroke:#181818;stroke-width:1;"/>
            <polygon fill="#181818" points="353.9,387.4879,363.6649,386.2046,358.1655,384.8792,359.4909,379.3798,353.9,387.4879" style="stroke:#181818;stroke-width:1;"/>
            <text fill="#000000" font-family="sans-serif" font-size="13" lengthAdjust="spacing" textLength="120.2891" x="443.71" y="286.4649">Presionar tecla [PD]</text>
        </g>
        <!--link Atacando to Inactivo-->
        <g class="link" data-entity-1="Atacando" data-entity-2="Inactivo" data-source-line="13" data-uid="lnk14" id="link_Atacando_Inactivo">
            <path d="M312.71,384.8579 C312.71,335.9679 312.71,231.9479 312.71,183.1479" fill="none" id="Atacando-to-Inactivo" style="stroke:#181818;stroke-width:1;"/>
            <polygon fill="#181818" points="312.71,177.1479,308.71,186.1479,312.71,182.1479,316.71,186.1479,312.71,177.1479" style="stroke:#181818;stroke-width:1;"/>
            <text fill="#000000" font-family="sans-serif" font-size="13" lengthAdjust="spacing" textLength="113.7631" x="313.71" y="286.4649">Dejar de presionar</text>
        </g>
        <!--link Inactivo to Muerto-->
        <g class="link" data-entity-1="Inactivo" data-entity-2="Muerto" data-source-line="7" data-uid="lnk10" id="link_Inactivo_Muerto">
            <path d="M349.01,155.2079 C407.7,160.8479 521.96,181.3679 572.71,256.0679 C649.8,369.5379 439.9223,480.4835 352.8623,520.4735" fill="none" id="Inactivo-to-Muerto" style="stroke:#181818;stroke-width:1;"/>
            <polygon fill="#181818" points="347.41,522.9779,357.2581,522.8561,351.9536,520.8909,353.9188,515.5864,347.41,522.9779" style="stroke:#181818;stroke-width:1;"/>
            <text fill="#000000" font-family="sans-serif" font-size="13" lengthAdjust="spacing" textLength="62.8811" x="583.71" y="350.9649">Salud &lt;= 0</text>
        </g>
        <!--link Moviendose to Atacando-->
        <g class="link" data-entity-1="Moviendose" data-entity-2="Atacando" data-source-line="10" data-uid="lnk12" id="link_Moviendose_Atacando">
            <path d="M132.21,306.3679 C138.86,322.1679 149.54,342.1679 164.71,355.0679 C195.24,381.0179 233.4447,393.6382 265.5447,400.8182" fill="none" id="Moviendose-to-Atacando" style="stroke:#181818;stroke-width:1;"/>
            <polygon fill="#181818" points="271.4,402.1279,263.4902,396.2598,266.5206,401.0365,261.7439,404.0669,271.4,402.1279" style="stroke:#181818;stroke-width:1;"/>
            <text fill="#000000" font-family="sans-serif" font-size="13" lengthAdjust="spacing" textLength="120.2891" x="165.71" y="350.9649">Presionar tecla [PD]</text>
        </g>
        <!--link Moviendose to Muerto-->
        <g class="link" data-entity-1="Moviendose" data-entity-2="Muerto" data-source-line="11" data-uid="lnk13" id="link_Moviendose_Muerto">
            <path d="M126.84,306.3779 C129.25,320.8979 133.27,339.4779 139.71,355.0679 C155.8,394.0379 162.95,403.3279 190.71,435.0679 C217.26,465.4279 248.2422,490.945 274.1822,510.425" fill="none" id="Moviendose-to-Muerto" style="stroke:#181818;stroke-width:1;"/>
            <polygon fill="#181818" points="278.98,514.0279,274.1853,505.425,274.9819,511.0255,269.3814,511.822,278.98,514.0279" style="stroke:#181818;stroke-width:1;"/>
            <text fill="#000000" font-family="sans-serif" font-size="13" lengthAdjust="spacing" textLength="62.8811" x="191.71" y="415.4649">Salud &lt;= 0</text>
        </g>
        <!--link Atacando to Muerto-->
        <g class="link" data-entity-1="Atacando" data-entity-2="Muerto" data-source-line="14" data-uid="lnk15" id="link_Atacando_Muerto">
            <path d="M312.71,435.2579 C312.71,457.8479 312.71,485.3979 312.71,507.9679" fill="none" id="Atacando-to-Muerto" style="stroke:#181818;stroke-width:1;"/>
            <polygon fill="#181818" points="312.71,513.9679,316.71,504.9679,312.71,508.9679,308.71,504.9679,312.71,513.9679" style="stroke:#181818;stroke-width:1;"/>
            <text fill="#000000" font-family="sans-serif" font-size="13" lengthAdjust="spacing" textLength="62.8811" x="313.71" y="479.9649">Salud &lt;= 0</text>
        </g>
        <!--SRC=[XOwn2i8m54NtVCMTfGLdKQ5G18LA8OD3wV187XefYQHflzyeLDfGS0kFSyz9CA5Zd6I579VXJjfv8PfDYpm_ucn91JCw8QRNzrovqR3LhcViK7lkZRFa4LXrXAR8RfdCodQvAG8fYfkrHPt2rS0-V519tQ2nFs0hnAmw_rkahWuFKknXILFA_Gid-6hwvqZ29J-ZJ3DUatc9hidU]-->
    </g>
</svg>
